<svg width="197" height="195" viewBox="0 0 197 195" fill="none" xmlns="http://www.w3.org/2000/svg">
<path d="M108.02 1.50977C107.06 10.5198 107.25 19.3798 109.7 28.1298C112.78 39.1198 118.76 48.4698 125.79 57.2698C131.7 64.6798 137.5 72.1698 140.89 81.1898C141.9 83.8898 142.87 86.6098 143.24 89.4498C143.5 91.4398 144.52 91.2398 145.91 91.1298C153.95 90.4798 161.33 92.1498 167.66 97.4298C170.19 99.5398 172.27 102.07 173.65 105.07C174.26 106.39 174.92 106.78 176.39 106.82C184.6 107 191.16 110.46 195.98 117.15C196.12 117.34 196.24 117.54 196.33 117.75C196.38 117.87 196.36 118.01 196.38 118.15C195.95 118.43 195.63 118.07 195.31 117.93C180.55 111.34 167.35 114.32 155.38 124.53C149.27 129.74 145.08 136.51 140.84 143.2C121.47 173.77 92.92 189.31 57.75 193.81C42.93 195.7 28.16 195.16 13.61 191.48C8.81 190.26 4.17 188.57 0 185.58C1.37 185.79 2.74 186.03 4.12 186.2C32.41 189.74 60.17 188.21 87 177.61C107.93 169.34 123.68 155.11 135.3 135.99C139.05 129.81 143.35 124 148.61 118.98C153.98 113.85 160.31 110.34 167.42 107.97C166.76 106.57 165.51 105.9 164.41 105.14C158.74 101.26 152.27 99.7898 145.58 99.0298C144.78 98.9398 144.27 99.0198 144.23 100.04C143.22 123.2 130.23 139.25 112.73 152.4C97.31 163.99 80.02 171.35 60.78 173.58C48.25 175.04 35.84 173.92 23.59 170.93C23.1 170.81 22.63 170.61 22.16 170.45C22.18 170.23 22.2 170.01 22.21 169.79C25.81 169.79 29.42 169.9 33.01 169.77C53.74 169.02 73.62 164.65 92.15 155.14C107.29 147.37 120.44 137.18 129.22 122.19C133.16 115.47 135.57 108.24 136.09 100.41C136.19 98.8598 135.87 98.1198 134.14 98.2698C132.6 98.4098 131.04 98.2998 129.05 98.2998C130.43 96.5398 131.99 95.5498 133.6 94.8798C135.68 94.0098 135.75 92.7398 135.25 90.8598C133.36 83.7098 130.01 77.2898 125.84 71.2298C121.03 64.2598 115.32 57.9698 110.81 50.7798C104.95 41.4398 101.17 31.4798 101.58 20.2798C101.83 13.4098 103.81 7.05977 108.04 1.50977H108.02Z" fill="#0D70B3"/>
<path d="M14.59 0.199448C22.41 22.8194 37.73 39.1594 55.66 53.4494C68.11 63.3694 81.8 71.4295 95.37 79.6595C101.6 83.4295 107.77 87.2995 112.8 92.6895C120.21 100.629 123.53 109.779 121.08 120.649C120.74 122.169 120.2 123.589 119.17 125.389C118.96 123.219 118.88 121.509 118.62 119.829C117.11 110.329 111.72 103.249 104.45 97.4095C96.7 91.1895 87.92 86.5895 79.47 81.4595C63.56 71.7995 48.06 61.5995 35.06 48.0695C27.49 40.1895 20.96 31.5995 17.23 21.1595C14.95 14.7895 13.73 5.30945 14.6 0.189453L14.59 0.199448Z" fill="#EA8D1C"/>
<path d="M10.99 34.0488C13.26 37.8388 15.45 41.6388 18.01 45.2188C27.21 58.0688 39.02 68.0988 52.02 76.8588C62.7 84.0588 73.93 90.2688 85.53 95.8188C86.5 96.2888 87.44 96.8288 88.35 97.4788C83.61 97.2088 78.97 96.4088 74.41 95.2088C60.57 91.5688 47.7 85.8288 36.49 76.7988C26.54 68.7788 18.14 59.4788 13.59 47.2488C12.02 43.0188 10.92 38.6688 11 34.0488H10.99Z" fill="#EA8D1C"/>
<path d="M89.23 114.779C82.97 114.799 76.76 114.169 70.6 113.019C55.99 110.289 42.86 104.289 31.35 94.9192C23.47 88.5092 17.3 80.7492 14.33 70.7992C14.04 69.8392 13.81 68.8892 13.88 67.4492C33.62 92.1692 61.13 103.859 89.23 114.779Z" fill="#EA8D1C"/>
<path d="M22.58 98.5586C44.89 117.489 71.57 125.949 99.24 132.529C97.49 132.689 95.75 132.929 94 133.009C78.12 133.709 62.73 131.609 48.4 124.309C38.54 119.279 29.84 112.819 24.22 102.949C23.48 101.659 22.55 100.389 22.59 98.5686L22.58 98.5586Z" fill="#EA8D1C"/>
<path d="M123.36 85.9791C113.87 79.7891 105.4 72.7391 99.07 63.4491C93.58 55.3991 90.23 46.5491 90.49 36.6391C90.6 32.6291 91.26 28.6791 93.49 25.0391C93.78 27.2891 93.99 29.5491 94.37 31.7791C96.35 43.4391 101.18 53.9191 107.69 63.6891C112.03 70.2091 116.93 76.3091 121.59 82.5891C122.3 83.5391 124.02 83.9591 123.36 85.9791Z" fill="#EA8D1C"/>
<path d="M41.94 130.129C58.91 138.079 76.84 142.539 95.45 145.519C76.14 154.659 56.41 147.549 41.94 130.129Z" fill="#0D70B3"/>
<path d="M92.24 69.5396C88.6 67.2596 83.94 66.3096 82.82 61.2896C81.69 56.2096 81.39 51.2496 84.29 45.8496C85.95 54.4896 88.79 62.0896 92.24 69.5396Z" fill="#EA8D1C"/>
</svg>
